<mxfile host="app.diagrams.net" agent="Mozilla/5.0 (Windows NT 10.0; Win64; x64) AppleWebKit/537.36 (KHTML, like Gecko) Chrome/136.0.0.0 Safari/537.36 Edg/136.0.0.0" version="27.1.1">
  <diagram id="-K2b_BcwwT4TvBw5ldxP" name="диаграмма последовательности">
    <mxGraphModel dx="1337" dy="706" grid="1" gridSize="10" guides="1" tooltips="1" connect="1" arrows="1" fold="1" page="1" pageScale="1" pageWidth="5000" pageHeight="5000" math="0" shadow="0">
      <root>
        <mxCell id="0" />
        <mxCell id="1" parent="0" />
        <mxCell id="ys3fO68FQWfldYGH6a0d-1" value="&lt;span style=&quot;color: rgba(0, 0, 0, 0); font-family: monospace; font-size: 0px; text-align: start;&quot;&gt;%3CmxGraphModel%3E%3Croot%3E%3CmxCell%20id%3D%220%22%2F%3E%3CmxCell%20id%3D%221%22%20parent%3D%220%22%2F%3E%3CmxCell%20id%3D%222%22%20value%3D%22%D0%9E%D1%88%D0%B8%D0%B1%D0%BA%D0%B0%20%D0%B4%D0%BE%D0%B1%D0%B0%D0%B2%D0%BB%D0%B5%D0%BD%D0%B8%D1%8F%22%20style%3D%22html%3D1%3BverticalAlign%3Dbottom%3BendArrow%3Dopen%3Bdashed%3D1%3BendSize%3D8%3Bcurved%3D0%3Brounded%3D0%3B%22%20edge%3D%221%22%20parent%3D%221%22%3E%3CmxGeometry%20x%3D%22-0.5556%22%20relative%3D%221%22%20as%3D%22geometry%22%3E%3CmxPoint%20x%3D%22870%22%20y%3D%22270%22%20as%3D%22sourcePoint%22%2F%3E%3CmxPoint%20x%3D%22510%22%20y%3D%22270%22%20as%3D%22targetPoint%22%2F%3E%3CmxPoint%20as%3D%22offset%22%2F%3E%3C%2FmxGeometry%3E%3C%2FmxCell%3E%3C%2Froot%3E%3C%2FmxGraphModel%3E&lt;/span&gt;" style="html=1;points=[];perimeter=orthogonalPerimeter;outlineConnect=0;targetShapes=umlLifeline;portConstraint=eastwest;newEdgeStyle={&quot;edgeStyle&quot;:&quot;elbowEdgeStyle&quot;,&quot;elbow&quot;:&quot;vertical&quot;,&quot;curved&quot;:0,&quot;rounded&quot;:0};" parent="1" vertex="1">
          <mxGeometry x="500" y="340" width="10" height="820" as="geometry" />
        </mxCell>
        <mxCell id="ys3fO68FQWfldYGH6a0d-2" value="Администратор" style="shape=umlActor;verticalLabelPosition=bottom;verticalAlign=top;html=1;" parent="1" vertex="1">
          <mxGeometry x="490" y="240" width="30" height="60" as="geometry" />
        </mxCell>
        <mxCell id="ys3fO68FQWfldYGH6a0d-3" value="Клиент" style="shape=umlActor;verticalLabelPosition=bottom;verticalAlign=top;html=1;" parent="1" vertex="1">
          <mxGeometry x="350" y="240" width="30" height="60" as="geometry" />
        </mxCell>
        <mxCell id="ys3fO68FQWfldYGH6a0d-4" value="&lt;span style=&quot;color: rgba(0, 0, 0, 0); font-family: monospace; font-size: 0px; text-align: start;&quot;&gt;%3CmxGraphModel%3E%3Croot%3E%3CmxCell%20id%3D%220%22%2F%3E%3CmxCell%20id%3D%221%22%20parent%3D%220%22%2F%3E%3CmxCell%20id%3D%222%22%20value%3D%22%D0%9E%D1%88%D0%B8%D0%B1%D0%BA%D0%B0%20%D0%B4%D0%BE%D0%B1%D0%B0%D0%B2%D0%BB%D0%B5%D0%BD%D0%B8%D1%8F%22%20style%3D%22html%3D1%3BverticalAlign%3Dbottom%3BendArrow%3Dopen%3Bdashed%3D1%3BendSize%3D8%3Bcurved%3D0%3Brounded%3D0%3B%22%20edge%3D%221%22%20parent%3D%221%22%3E%3CmxGeometry%20x%3D%22-0.5556%22%20relative%3D%221%22%20as%3D%22geometry%22%3E%3CmxPoint%20x%3D%22870%22%20y%3D%22270%22%20as%3D%22sourcePoint%22%2F%3E%3CmxPoint%20x%3D%22510%22%20y%3D%22270%22%20as%3D%22targetPoint%22%2F%3E%3CmxPoint%20as%3D%22offset%22%2F%3E%3C%2FmxGeometry%3E%3C%2FmxCell%3E%3C%2Froot%3E%3C%2FmxGraphModel%3E&lt;/span&gt;" style="html=1;points=[];perimeter=orthogonalPerimeter;outlineConnect=0;targetShapes=umlLifeline;portConstraint=eastwest;newEdgeStyle={&quot;edgeStyle&quot;:&quot;elbowEdgeStyle&quot;,&quot;elbow&quot;:&quot;vertical&quot;,&quot;curved&quot;:0,&quot;rounded&quot;:0};" parent="1" vertex="1">
          <mxGeometry x="360" y="340" width="10" height="820" as="geometry" />
        </mxCell>
        <mxCell id="ys3fO68FQWfldYGH6a0d-5" value="" style="endArrow=none;html=1;rounded=0;" parent="1" edge="1">
          <mxGeometry width="50" height="50" relative="1" as="geometry">
            <mxPoint x="320" y="370" as="sourcePoint" />
            <mxPoint x="1430" y="370" as="targetPoint" />
          </mxGeometry>
        </mxCell>
        <mxCell id="ys3fO68FQWfldYGH6a0d-15" value="&lt;font style=&quot;font-size: 17px;&quot;&gt;клиент отправляет заявку&lt;/font&gt;" style="edgeLabel;html=1;align=center;verticalAlign=middle;resizable=0;points=[];fontStyle=1;labelBorderColor=default;" parent="ys3fO68FQWfldYGH6a0d-5" vertex="1" connectable="0">
          <mxGeometry x="-0.0752" y="2" relative="1" as="geometry">
            <mxPoint x="123" as="offset" />
          </mxGeometry>
        </mxCell>
        <mxCell id="ys3fO68FQWfldYGH6a0d-6" value="веб-интерфейс" style="rounded=0;whiteSpace=wrap;html=1;" parent="1" vertex="1">
          <mxGeometry x="670" y="310" width="100" height="30" as="geometry" />
        </mxCell>
        <mxCell id="ys3fO68FQWfldYGH6a0d-7" value="&lt;div&gt;контроллер&lt;/div&gt;&lt;div&gt;мероприятий&lt;/div&gt;" style="rounded=0;whiteSpace=wrap;html=1;" parent="1" vertex="1">
          <mxGeometry x="910" y="310" width="100" height="30" as="geometry" />
        </mxCell>
        <mxCell id="ys3fO68FQWfldYGH6a0d-8" value="сервис мероприя&lt;span style=&quot;background-color: transparent; color: light-dark(rgb(0, 0, 0), rgb(255, 255, 255));&quot;&gt;тий&lt;/span&gt;" style="rounded=0;whiteSpace=wrap;html=1;" parent="1" vertex="1">
          <mxGeometry x="1080" y="310" width="100" height="30" as="geometry" />
        </mxCell>
        <mxCell id="ys3fO68FQWfldYGH6a0d-9" value="база данных" style="rounded=0;whiteSpace=wrap;html=1;" parent="1" vertex="1">
          <mxGeometry x="1310" y="310" width="100" height="30" as="geometry" />
        </mxCell>
        <mxCell id="ys3fO68FQWfldYGH6a0d-10" value="" style="endArrow=none;dashed=1;html=1;rounded=0;entryX=0.5;entryY=1;entryDx=0;entryDy=0;" parent="1" target="ys3fO68FQWfldYGH6a0d-6" edge="1">
          <mxGeometry width="50" height="50" relative="1" as="geometry">
            <mxPoint x="720" y="1164.2105263157894" as="sourcePoint" />
            <mxPoint x="890" y="420" as="targetPoint" />
          </mxGeometry>
        </mxCell>
        <mxCell id="ys3fO68FQWfldYGH6a0d-12" value="" style="endArrow=none;dashed=1;html=1;rounded=0;entryX=0.5;entryY=1;entryDx=0;entryDy=0;" parent="1" target="ys3fO68FQWfldYGH6a0d-7" edge="1">
          <mxGeometry width="50" height="50" relative="1" as="geometry">
            <mxPoint x="960" y="1196.842105263158" as="sourcePoint" />
            <mxPoint x="830" y="520" as="targetPoint" />
          </mxGeometry>
        </mxCell>
        <mxCell id="ys3fO68FQWfldYGH6a0d-13" value="" style="endArrow=none;dashed=1;html=1;rounded=0;entryX=0.5;entryY=1;entryDx=0;entryDy=0;" parent="1" target="ys3fO68FQWfldYGH6a0d-8" edge="1">
          <mxGeometry width="50" height="50" relative="1" as="geometry">
            <mxPoint x="1130" y="1200" as="sourcePoint" />
            <mxPoint x="1120" y="340" as="targetPoint" />
            <Array as="points">
              <mxPoint x="1130" y="1220" />
              <mxPoint x="1130" y="1200" />
            </Array>
          </mxGeometry>
        </mxCell>
        <mxCell id="ys3fO68FQWfldYGH6a0d-14" value="" style="endArrow=none;dashed=1;html=1;rounded=0;entryX=0.5;entryY=1;entryDx=0;entryDy=0;" parent="1" target="ys3fO68FQWfldYGH6a0d-9" edge="1">
          <mxGeometry width="50" height="50" relative="1" as="geometry">
            <mxPoint x="1360" y="1210" as="sourcePoint" />
            <mxPoint x="1020" y="460" as="targetPoint" />
          </mxGeometry>
        </mxCell>
        <mxCell id="ys3fO68FQWfldYGH6a0d-16" value="&lt;font style=&quot;font-size: 14px;&quot;&gt;заполняет форму для записи&lt;/font&gt;" style="endArrow=block;endSize=16;endFill=0;html=1;rounded=0;" parent="1" edge="1">
          <mxGeometry x="0.3143" y="10" width="160" relative="1" as="geometry">
            <mxPoint x="370" y="420" as="sourcePoint" />
            <mxPoint x="720" y="420" as="targetPoint" />
            <Array as="points">
              <mxPoint x="580" y="420" />
            </Array>
            <mxPoint as="offset" />
          </mxGeometry>
        </mxCell>
        <mxCell id="ys3fO68FQWfldYGH6a0d-17" value="&lt;font style=&quot;font-size: 14px;&quot;&gt;отправка заявки на заказ&lt;/font&gt;" style="endArrow=block;endSize=16;endFill=0;html=1;rounded=0;" parent="1" edge="1">
          <mxGeometry x="-0.0476" y="10" width="160" relative="1" as="geometry">
            <mxPoint x="720" y="440" as="sourcePoint" />
            <mxPoint x="960" y="440" as="targetPoint" />
            <mxPoint as="offset" />
          </mxGeometry>
        </mxCell>
        <mxCell id="ys3fO68FQWfldYGH6a0d-18" value="" style="endArrow=none;html=1;rounded=0;" parent="1" edge="1">
          <mxGeometry width="50" height="50" relative="1" as="geometry">
            <mxPoint x="310" y="780" as="sourcePoint" />
            <mxPoint x="1420" y="780" as="targetPoint" />
          </mxGeometry>
        </mxCell>
        <mxCell id="ys3fO68FQWfldYGH6a0d-19" value="&lt;font style=&quot;font-size: 17px;&quot;&gt;администратор обрабатывает заявку&lt;/font&gt;" style="edgeLabel;html=1;align=center;verticalAlign=middle;resizable=0;points=[];fontStyle=1;labelBorderColor=default;" parent="ys3fO68FQWfldYGH6a0d-18" vertex="1" connectable="0">
          <mxGeometry x="-0.0752" y="2" relative="1" as="geometry">
            <mxPoint x="123" as="offset" />
          </mxGeometry>
        </mxCell>
        <mxCell id="ys3fO68FQWfldYGH6a0d-23" value="&lt;font style=&quot;font-size: 14px;&quot;&gt;открывает заявку&lt;/font&gt;" style="endArrow=block;endSize=16;endFill=0;html=1;rounded=0;" parent="1" source="ys3fO68FQWfldYGH6a0d-1" edge="1">
          <mxGeometry x="-0.1429" y="10" width="160" relative="1" as="geometry">
            <mxPoint x="520" y="820" as="sourcePoint" />
            <mxPoint x="720" y="820" as="targetPoint" />
            <Array as="points">
              <mxPoint x="580" y="820" />
            </Array>
            <mxPoint as="offset" />
          </mxGeometry>
        </mxCell>
        <mxCell id="ys3fO68FQWfldYGH6a0d-24" value="&lt;font style=&quot;font-size: 14px;&quot;&gt;звонит для&lt;/font&gt;&lt;div&gt;&lt;font style=&quot;font-size: 14px;&quot;&gt;&amp;nbsp;потдверждения&lt;/font&gt;&lt;/div&gt;" style="endArrow=block;endSize=16;endFill=0;html=1;rounded=0;" parent="1" edge="1">
          <mxGeometry x="-0.1429" y="10" width="160" relative="1" as="geometry">
            <mxPoint x="500" y="840" as="sourcePoint" />
            <mxPoint x="370" y="840" as="targetPoint" />
            <Array as="points" />
            <mxPoint as="offset" />
          </mxGeometry>
        </mxCell>
        <mxCell id="ys3fO68FQWfldYGH6a0d-34" value="" style="endArrow=none;html=1;rounded=0;" parent="1" edge="1">
          <mxGeometry width="50" height="50" relative="1" as="geometry">
            <mxPoint x="320" y="1060" as="sourcePoint" />
            <mxPoint x="1440" y="1060" as="targetPoint" />
          </mxGeometry>
        </mxCell>
        <mxCell id="ys3fO68FQWfldYGH6a0d-35" value="&lt;font style=&quot;font-size: 16px;&quot;&gt;уведомление клиента&lt;/font&gt;" style="edgeLabel;html=1;align=center;verticalAlign=middle;resizable=0;points=[];fontStyle=1;labelBorderColor=default;" parent="ys3fO68FQWfldYGH6a0d-34" vertex="1" connectable="0">
          <mxGeometry x="-0.0752" y="2" relative="1" as="geometry">
            <mxPoint x="123" as="offset" />
          </mxGeometry>
        </mxCell>
        <mxCell id="ys3fO68FQWfldYGH6a0d-37" value="&lt;font style=&quot;font-size: 14px;&quot;&gt;заявка оборена&lt;/font&gt;" style="endArrow=open;endSize=12;dashed=1;html=1;rounded=0;" parent="1" edge="1">
          <mxGeometry width="160" relative="1" as="geometry">
            <mxPoint x="960" y="1090" as="sourcePoint" />
            <mxPoint x="720" y="1090" as="targetPoint" />
          </mxGeometry>
        </mxCell>
        <mxCell id="ys3fO68FQWfldYGH6a0d-38" value="&lt;font style=&quot;font-size: 14px;&quot;&gt;уведомление об успешном записи&lt;/font&gt;" style="endArrow=open;endSize=12;dashed=1;html=1;rounded=0;" parent="1" target="ys3fO68FQWfldYGH6a0d-4" edge="1">
          <mxGeometry width="160" relative="1" as="geometry">
            <mxPoint x="720" y="1130" as="sourcePoint" />
            <mxPoint x="580" y="1130" as="targetPoint" />
          </mxGeometry>
        </mxCell>
        <mxCell id="OoBTwOFS56ZXu6gLUlps-2" value="&lt;font style=&quot;font-size: 14px;&quot;&gt;уведомление об ожидании ответа&lt;/font&gt;" style="endArrow=open;endSize=12;dashed=1;html=1;rounded=0;" parent="1" edge="1">
          <mxGeometry width="160" relative="1" as="geometry">
            <mxPoint x="720" y="749" as="sourcePoint" />
            <mxPoint x="360" y="749.41" as="targetPoint" />
          </mxGeometry>
        </mxCell>
        <mxCell id="OoBTwOFS56ZXu6gLUlps-3" value="&lt;font style=&quot;font-size: 14px;&quot;&gt;обр. заявку&lt;/font&gt;" style="endArrow=block;endSize=16;endFill=0;html=1;rounded=0;" parent="1" edge="1">
          <mxGeometry x="-0.1429" y="10" width="160" relative="1" as="geometry">
            <mxPoint x="960" y="460" as="sourcePoint" />
            <mxPoint x="1130" y="460" as="targetPoint" />
            <Array as="points" />
            <mxPoint as="offset" />
          </mxGeometry>
        </mxCell>
        <mxCell id="OoBTwOFS56ZXu6gLUlps-4" value="&lt;font style=&quot;font-size: 14px;&quot;&gt;проверить актуальность&lt;br&gt;мероприятия &lt;br&gt;(по дате и местам)&lt;/font&gt;" style="endArrow=block;endSize=16;endFill=0;html=1;rounded=0;" parent="1" edge="1">
          <mxGeometry x="-0.1429" y="10" width="160" relative="1" as="geometry">
            <mxPoint x="1130" y="490" as="sourcePoint" />
            <mxPoint x="1360" y="490" as="targetPoint" />
            <Array as="points" />
            <mxPoint as="offset" />
          </mxGeometry>
        </mxCell>
        <mxCell id="OoBTwOFS56ZXu6gLUlps-5" value="&lt;font style=&quot;font-size: 14px;&quot;&gt;сохранить заявка&lt;/font&gt;" style="endArrow=block;endSize=16;endFill=0;html=1;rounded=0;" parent="1" edge="1">
          <mxGeometry x="-0.1429" y="10" width="160" relative="1" as="geometry">
            <mxPoint x="1130" y="610" as="sourcePoint" />
            <mxPoint x="1360" y="610" as="targetPoint" />
            <Array as="points" />
            <mxPoint as="offset" />
          </mxGeometry>
        </mxCell>
        <mxCell id="OoBTwOFS56ZXu6gLUlps-6" value="&lt;font style=&quot;font-size: 14px;&quot;&gt;заявка сохранен&lt;/font&gt;" style="endArrow=open;endSize=12;dashed=1;html=1;rounded=0;" parent="1" edge="1">
          <mxGeometry width="160" relative="1" as="geometry">
            <mxPoint x="1360" y="650" as="sourcePoint" />
            <mxPoint x="1130" y="650" as="targetPoint" />
          </mxGeometry>
        </mxCell>
        <mxCell id="OoBTwOFS56ZXu6gLUlps-7" value="&lt;font style=&quot;font-size: 14px;&quot;&gt;мероприятие актуально&lt;/font&gt;" style="endArrow=open;endSize=12;dashed=1;html=1;rounded=0;" parent="1" edge="1">
          <mxGeometry width="160" relative="1" as="geometry">
            <mxPoint x="1360" y="540" as="sourcePoint" />
            <mxPoint x="1130" y="540" as="targetPoint" />
          </mxGeometry>
        </mxCell>
        <mxCell id="OoBTwOFS56ZXu6gLUlps-8" value="&lt;font style=&quot;font-size: 14px;&quot;&gt;успешное оформ.&lt;/font&gt;&lt;div&gt;&lt;font style=&quot;font-size: 14px;&quot;&gt;заявки.&lt;/font&gt;&lt;/div&gt;" style="endArrow=open;endSize=12;dashed=1;html=1;rounded=0;" parent="1" edge="1">
          <mxGeometry width="160" relative="1" as="geometry">
            <mxPoint x="1130" y="690" as="sourcePoint" />
            <mxPoint x="960" y="690" as="targetPoint" />
          </mxGeometry>
        </mxCell>
        <mxCell id="OoBTwOFS56ZXu6gLUlps-10" value="&lt;font style=&quot;font-size: 14px;&quot;&gt;успешное оформ.&lt;/font&gt;&lt;div&gt;&lt;font style=&quot;font-size: 14px;&quot;&gt;заявки.&lt;/font&gt;&lt;/div&gt;" style="endArrow=open;endSize=12;dashed=1;html=1;rounded=0;" parent="1" edge="1">
          <mxGeometry width="160" relative="1" as="geometry">
            <mxPoint x="960" y="720" as="sourcePoint" />
            <mxPoint x="720" y="720" as="targetPoint" />
          </mxGeometry>
        </mxCell>
        <mxCell id="OoBTwOFS56ZXu6gLUlps-11" value="&lt;font style=&quot;font-size: 14px;&quot;&gt;подтверждает заявку&lt;/font&gt;" style="endArrow=block;endSize=16;endFill=0;html=1;rounded=0;" parent="1" edge="1">
          <mxGeometry x="-0.0476" y="10" width="160" relative="1" as="geometry">
            <mxPoint x="720" y="880" as="sourcePoint" />
            <mxPoint x="960" y="880" as="targetPoint" />
            <mxPoint as="offset" />
          </mxGeometry>
        </mxCell>
        <mxCell id="OoBTwOFS56ZXu6gLUlps-12" value="&lt;font style=&quot;font-size: 14px;&quot;&gt;обр. заявку&lt;/font&gt;" style="endArrow=block;endSize=16;endFill=0;html=1;rounded=0;" parent="1" edge="1">
          <mxGeometry x="-0.1429" y="10" width="160" relative="1" as="geometry">
            <mxPoint x="960" y="910" as="sourcePoint" />
            <mxPoint x="1130" y="910" as="targetPoint" />
            <Array as="points" />
            <mxPoint as="offset" />
          </mxGeometry>
        </mxCell>
        <mxCell id="OoBTwOFS56ZXu6gLUlps-13" value="&lt;font style=&quot;font-size: 14px;&quot;&gt;изменить статус &lt;br&gt;заявки на &quot;одобрено&quot;&lt;/font&gt;" style="endArrow=block;endSize=16;endFill=0;html=1;rounded=0;" parent="1" edge="1">
          <mxGeometry x="-0.1429" y="10" width="160" relative="1" as="geometry">
            <mxPoint x="1130" y="940" as="sourcePoint" />
            <mxPoint x="1360" y="940" as="targetPoint" />
            <Array as="points" />
            <mxPoint as="offset" />
          </mxGeometry>
        </mxCell>
        <mxCell id="OoBTwOFS56ZXu6gLUlps-14" value="&lt;font style=&quot;font-size: 14px;&quot;&gt;заявка изменена&lt;/font&gt;" style="endArrow=open;endSize=12;dashed=1;html=1;rounded=0;" parent="1" edge="1">
          <mxGeometry width="160" relative="1" as="geometry">
            <mxPoint x="1360" y="980" as="sourcePoint" />
            <mxPoint x="1130" y="980" as="targetPoint" />
          </mxGeometry>
        </mxCell>
        <mxCell id="OoBTwOFS56ZXu6gLUlps-15" value="&lt;font style=&quot;font-size: 14px;&quot;&gt;успешное потвержд.&lt;/font&gt;&lt;div&gt;&lt;font style=&quot;font-size: 14px;&quot;&gt;заявки.&lt;/font&gt;&lt;/div&gt;" style="endArrow=open;endSize=12;dashed=1;html=1;rounded=0;" parent="1" edge="1">
          <mxGeometry width="160" relative="1" as="geometry">
            <mxPoint x="1130" y="1010" as="sourcePoint" />
            <mxPoint x="960" y="1010" as="targetPoint" />
          </mxGeometry>
        </mxCell>
      </root>
    </mxGraphModel>
  </diagram>
</mxfile>
